<mxfile host="app.diagrams.net" agent="Mozilla/5.0 (Windows NT 10.0; Win64; x64) AppleWebKit/537.36 (KHTML, like Gecko) Chrome/127.0.0.0 Safari/537.36 Edg/127.0.0.0" version="24.7.7">
  <diagram name="第 1 页" id="iK6y2Gx2c88qjG3j6-Pi">
    <mxGraphModel dx="868" dy="473" grid="1" gridSize="10" guides="1" tooltips="1" connect="1" arrows="1" fold="1" page="1" pageScale="1" pageWidth="827" pageHeight="1169" math="0" shadow="0">
      <root>
        <mxCell id="0" />
        <mxCell id="1" parent="0" />
        <mxCell id="2eevFfrJGKHwh65OxxNX-2" value="" style="rounded=1;whiteSpace=wrap;html=1;" vertex="1" parent="1">
          <mxGeometry x="80" y="120" width="160" height="380" as="geometry" />
        </mxCell>
        <mxCell id="2eevFfrJGKHwh65OxxNX-7" value="controller" style="text;html=1;align=center;verticalAlign=middle;resizable=0;points=[];autosize=1;strokeColor=none;fillColor=none;" vertex="1" parent="1">
          <mxGeometry x="125" y="90" width="70" height="30" as="geometry" />
        </mxCell>
        <mxCell id="2eevFfrJGKHwh65OxxNX-8" value="" style="rounded=1;whiteSpace=wrap;html=1;" vertex="1" parent="1">
          <mxGeometry x="320" y="120" width="160" height="380" as="geometry" />
        </mxCell>
        <mxCell id="2eevFfrJGKHwh65OxxNX-10" value="service" style="text;html=1;align=center;verticalAlign=middle;resizable=0;points=[];autosize=1;strokeColor=none;fillColor=none;" vertex="1" parent="1">
          <mxGeometry x="370" y="90" width="60" height="30" as="geometry" />
        </mxCell>
        <mxCell id="2eevFfrJGKHwh65OxxNX-35" value="" style="curved=1;endArrow=classic;html=1;rounded=0;exitX=1;exitY=1;exitDx=0;exitDy=0;entryX=1;entryY=0.5;entryDx=0;entryDy=0;" edge="1" parent="1" target="2eevFfrJGKHwh65OxxNX-31">
          <mxGeometry width="50" height="50" relative="1" as="geometry">
            <mxPoint x="428.2842712474619" y="338.284271247462" as="sourcePoint" />
            <mxPoint x="520" y="400" as="targetPoint" />
            <Array as="points">
              <mxPoint x="480" y="370" />
            </Array>
          </mxGeometry>
        </mxCell>
        <mxCell id="2eevFfrJGKHwh65OxxNX-41" value="ask location&#39;s attractions and print" style="ellipse;whiteSpace=wrap;html=1;aspect=fixed;" vertex="1" parent="1">
          <mxGeometry x="120" y="270" width="80" height="80" as="geometry" />
        </mxCell>
        <mxCell id="2eevFfrJGKHwh65OxxNX-42" value="extract raw data by jsoup" style="ellipse;whiteSpace=wrap;html=1;aspect=fixed;" vertex="1" parent="1">
          <mxGeometry x="360" y="190" width="80" height="80" as="geometry" />
        </mxCell>
        <mxCell id="2eevFfrJGKHwh65OxxNX-43" value="turn raw data to Sight array" style="ellipse;whiteSpace=wrap;html=1;aspect=fixed;" vertex="1" parent="1">
          <mxGeometry x="360" y="350" width="80" height="80" as="geometry" />
        </mxCell>
        <mxCell id="2eevFfrJGKHwh65OxxNX-44" value="" style="endArrow=classic;html=1;rounded=0;exitX=1;exitY=0;exitDx=0;exitDy=0;entryX=0;entryY=0.5;entryDx=0;entryDy=0;" edge="1" parent="1" source="2eevFfrJGKHwh65OxxNX-41" target="2eevFfrJGKHwh65OxxNX-42">
          <mxGeometry width="50" height="50" relative="1" as="geometry">
            <mxPoint x="260" y="280" as="sourcePoint" />
            <mxPoint x="310" y="230" as="targetPoint" />
          </mxGeometry>
        </mxCell>
        <mxCell id="2eevFfrJGKHwh65OxxNX-45" value="location" style="edgeLabel;html=1;align=center;verticalAlign=middle;resizable=0;points=[];" vertex="1" connectable="0" parent="2eevFfrJGKHwh65OxxNX-44">
          <mxGeometry x="0.0853" relative="1" as="geometry">
            <mxPoint as="offset" />
          </mxGeometry>
        </mxCell>
        <mxCell id="2eevFfrJGKHwh65OxxNX-46" value="" style="endArrow=classic;html=1;rounded=0;exitX=0.5;exitY=1;exitDx=0;exitDy=0;entryX=0.5;entryY=0;entryDx=0;entryDy=0;" edge="1" parent="1" source="2eevFfrJGKHwh65OxxNX-42" target="2eevFfrJGKHwh65OxxNX-43">
          <mxGeometry width="50" height="50" relative="1" as="geometry">
            <mxPoint x="290" y="330" as="sourcePoint" />
            <mxPoint x="340" y="280" as="targetPoint" />
          </mxGeometry>
        </mxCell>
        <mxCell id="2eevFfrJGKHwh65OxxNX-47" value="raw data" style="edgeLabel;html=1;align=center;verticalAlign=middle;resizable=0;points=[];" vertex="1" connectable="0" parent="2eevFfrJGKHwh65OxxNX-46">
          <mxGeometry x="-0.0329" y="-2" relative="1" as="geometry">
            <mxPoint x="2" y="1" as="offset" />
          </mxGeometry>
        </mxCell>
        <mxCell id="2eevFfrJGKHwh65OxxNX-48" value="" style="endArrow=classic;html=1;rounded=0;exitX=0;exitY=0.5;exitDx=0;exitDy=0;entryX=1;entryY=1;entryDx=0;entryDy=0;" edge="1" parent="1" source="2eevFfrJGKHwh65OxxNX-43" target="2eevFfrJGKHwh65OxxNX-41">
          <mxGeometry width="50" height="50" relative="1" as="geometry">
            <mxPoint x="280" y="350" as="sourcePoint" />
            <mxPoint x="330" y="300" as="targetPoint" />
          </mxGeometry>
        </mxCell>
        <mxCell id="2eevFfrJGKHwh65OxxNX-49" value="Sight array" style="edgeLabel;html=1;align=center;verticalAlign=middle;resizable=0;points=[];" vertex="1" connectable="0" parent="2eevFfrJGKHwh65OxxNX-48">
          <mxGeometry x="0.0353" y="-5" relative="1" as="geometry">
            <mxPoint x="7" y="1" as="offset" />
          </mxGeometry>
        </mxCell>
      </root>
    </mxGraphModel>
  </diagram>
</mxfile>
